<mxfile host="app.diagrams.net" agent="Mozilla/5.0 (Windows NT 10.0; Win64; x64) AppleWebKit/537.36 (KHTML, like Gecko) Chrome/132.0.0.0 Safari/537.36" version="26.0.11">
  <diagram id="R2lEEEUBdFMjLlhIrx00" name="Page-1">
    <mxGraphModel dx="1434" dy="780" grid="1" gridSize="10" guides="1" tooltips="1" connect="1" arrows="1" fold="1" page="1" pageScale="1" pageWidth="850" pageHeight="1100" math="0" shadow="0" extFonts="Permanent Marker^https://fonts.googleapis.com/css?family=Permanent+Marker">
      <root>
        <mxCell id="0" />
        <mxCell id="1" parent="0" />
        <mxCell id="4NpsqZ_ejs6OjjV2Qtw8-28" style="edgeStyle=orthogonalEdgeStyle;rounded=0;orthogonalLoop=1;jettySize=auto;html=1;exitX=0;exitY=0;exitDx=0;exitDy=0;" edge="1" parent="1" source="4NpsqZ_ejs6OjjV2Qtw8-9" target="4NpsqZ_ejs6OjjV2Qtw8-23">
          <mxGeometry relative="1" as="geometry" />
        </mxCell>
        <mxCell id="4NpsqZ_ejs6OjjV2Qtw8-29" style="edgeStyle=orthogonalEdgeStyle;rounded=0;orthogonalLoop=1;jettySize=auto;html=1;exitX=0.25;exitY=0;exitDx=0;exitDy=0;entryX=0;entryY=0.5;entryDx=0;entryDy=0;" edge="1" parent="1" source="4NpsqZ_ejs6OjjV2Qtw8-9" target="4NpsqZ_ejs6OjjV2Qtw8-24">
          <mxGeometry relative="1" as="geometry" />
        </mxCell>
        <mxCell id="4NpsqZ_ejs6OjjV2Qtw8-31" value="" style="edgeStyle=orthogonalEdgeStyle;rounded=0;orthogonalLoop=1;jettySize=auto;html=1;" edge="1" parent="1" source="4NpsqZ_ejs6OjjV2Qtw8-9" target="4NpsqZ_ejs6OjjV2Qtw8-26">
          <mxGeometry relative="1" as="geometry" />
        </mxCell>
        <mxCell id="4NpsqZ_ejs6OjjV2Qtw8-32" value="" style="edgeStyle=orthogonalEdgeStyle;rounded=0;orthogonalLoop=1;jettySize=auto;html=1;" edge="1" parent="1" source="4NpsqZ_ejs6OjjV2Qtw8-9" target="4NpsqZ_ejs6OjjV2Qtw8-27">
          <mxGeometry relative="1" as="geometry">
            <Array as="points">
              <mxPoint x="290" y="240" />
            </Array>
          </mxGeometry>
        </mxCell>
        <mxCell id="4NpsqZ_ejs6OjjV2Qtw8-37" value="" style="edgeStyle=orthogonalEdgeStyle;rounded=0;orthogonalLoop=1;jettySize=auto;html=1;" edge="1" parent="1" source="4NpsqZ_ejs6OjjV2Qtw8-9" target="4NpsqZ_ejs6OjjV2Qtw8-36">
          <mxGeometry relative="1" as="geometry" />
        </mxCell>
        <mxCell id="4NpsqZ_ejs6OjjV2Qtw8-9" value="Task" style="shape=ext;margin=3;double=1;whiteSpace=wrap;html=1;align=center;" vertex="1" parent="1">
          <mxGeometry x="240" y="160" width="100" height="40" as="geometry" />
        </mxCell>
        <mxCell id="4NpsqZ_ejs6OjjV2Qtw8-20" style="edgeStyle=orthogonalEdgeStyle;rounded=0;orthogonalLoop=1;jettySize=auto;html=1;" edge="1" parent="1" source="4NpsqZ_ejs6OjjV2Qtw8-10" target="4NpsqZ_ejs6OjjV2Qtw8-19">
          <mxGeometry relative="1" as="geometry">
            <mxPoint x="550" y="440" as="targetPoint" />
          </mxGeometry>
        </mxCell>
        <mxCell id="4NpsqZ_ejs6OjjV2Qtw8-21" style="edgeStyle=orthogonalEdgeStyle;rounded=0;orthogonalLoop=1;jettySize=auto;html=1;exitX=1;exitY=0.75;exitDx=0;exitDy=0;" edge="1" parent="1" source="4NpsqZ_ejs6OjjV2Qtw8-10" target="4NpsqZ_ejs6OjjV2Qtw8-17">
          <mxGeometry relative="1" as="geometry" />
        </mxCell>
        <mxCell id="4NpsqZ_ejs6OjjV2Qtw8-22" style="edgeStyle=orthogonalEdgeStyle;rounded=0;orthogonalLoop=1;jettySize=auto;html=1;exitX=0.5;exitY=1;exitDx=0;exitDy=0;entryX=0;entryY=1;entryDx=0;entryDy=0;" edge="1" parent="1" source="4NpsqZ_ejs6OjjV2Qtw8-10" target="4NpsqZ_ejs6OjjV2Qtw8-18">
          <mxGeometry relative="1" as="geometry" />
        </mxCell>
        <mxCell id="4NpsqZ_ejs6OjjV2Qtw8-10" value="Person" style="rounded=1;arcSize=10;whiteSpace=wrap;html=1;align=center;" vertex="1" parent="1">
          <mxGeometry x="500" y="480" width="100" height="40" as="geometry" />
        </mxCell>
        <mxCell id="4NpsqZ_ejs6OjjV2Qtw8-35" style="edgeStyle=orthogonalEdgeStyle;rounded=0;orthogonalLoop=1;jettySize=auto;html=1;exitX=0.5;exitY=1;exitDx=0;exitDy=0;entryX=0.5;entryY=0;entryDx=0;entryDy=0;" edge="1" parent="1" source="4NpsqZ_ejs6OjjV2Qtw8-13" target="4NpsqZ_ejs6OjjV2Qtw8-34">
          <mxGeometry relative="1" as="geometry" />
        </mxCell>
        <mxCell id="4NpsqZ_ejs6OjjV2Qtw8-13" value="Make" style="shape=rhombus;double=1;perimeter=rhombusPerimeter;whiteSpace=wrap;html=1;align=center;" vertex="1" parent="1">
          <mxGeometry x="140" y="480" width="120" height="60" as="geometry" />
        </mxCell>
        <mxCell id="4NpsqZ_ejs6OjjV2Qtw8-14" value="" style="edgeStyle=entityRelationEdgeStyle;fontSize=12;html=1;endArrow=ERoneToMany;rounded=0;exitX=0.5;exitY=0;exitDx=0;exitDy=0;" edge="1" parent="1" source="4NpsqZ_ejs6OjjV2Qtw8-13" target="4NpsqZ_ejs6OjjV2Qtw8-9">
          <mxGeometry width="100" height="100" relative="1" as="geometry">
            <mxPoint x="370" y="450" as="sourcePoint" />
            <mxPoint x="270" y="200" as="targetPoint" />
          </mxGeometry>
        </mxCell>
        <mxCell id="4NpsqZ_ejs6OjjV2Qtw8-15" value="" style="edgeStyle=entityRelationEdgeStyle;fontSize=12;html=1;endArrow=ERmandOne;startArrow=ERmandOne;rounded=0;exitX=1;exitY=0.5;exitDx=0;exitDy=0;entryX=0;entryY=0.75;entryDx=0;entryDy=0;" edge="1" parent="1" source="4NpsqZ_ejs6OjjV2Qtw8-13" target="4NpsqZ_ejs6OjjV2Qtw8-10">
          <mxGeometry width="100" height="100" relative="1" as="geometry">
            <mxPoint x="370" y="450" as="sourcePoint" />
            <mxPoint x="470" y="350" as="targetPoint" />
          </mxGeometry>
        </mxCell>
        <mxCell id="4NpsqZ_ejs6OjjV2Qtw8-17" value="ID" style="ellipse;whiteSpace=wrap;html=1;align=center;fontStyle=4;" vertex="1" parent="1">
          <mxGeometry x="700" y="480" width="100" height="40" as="geometry" />
        </mxCell>
        <mxCell id="4NpsqZ_ejs6OjjV2Qtw8-40" value="" style="edgeStyle=orthogonalEdgeStyle;rounded=0;orthogonalLoop=1;jettySize=auto;html=1;" edge="1" parent="1" source="4NpsqZ_ejs6OjjV2Qtw8-18" target="4NpsqZ_ejs6OjjV2Qtw8-39">
          <mxGeometry relative="1" as="geometry" />
        </mxCell>
        <mxCell id="4NpsqZ_ejs6OjjV2Qtw8-42" style="edgeStyle=orthogonalEdgeStyle;rounded=0;orthogonalLoop=1;jettySize=auto;html=1;exitX=1;exitY=1;exitDx=0;exitDy=0;entryX=0.5;entryY=0;entryDx=0;entryDy=0;" edge="1" parent="1" source="4NpsqZ_ejs6OjjV2Qtw8-18" target="4NpsqZ_ejs6OjjV2Qtw8-38">
          <mxGeometry relative="1" as="geometry" />
        </mxCell>
        <mxCell id="4NpsqZ_ejs6OjjV2Qtw8-18" value="Account" style="ellipse;whiteSpace=wrap;html=1;align=center;" vertex="1" parent="1">
          <mxGeometry x="620" y="520" width="100" height="40" as="geometry" />
        </mxCell>
        <mxCell id="4NpsqZ_ejs6OjjV2Qtw8-19" value="Name" style="ellipse;whiteSpace=wrap;html=1;align=center;" vertex="1" parent="1">
          <mxGeometry x="620" y="440" width="100" height="40" as="geometry" />
        </mxCell>
        <mxCell id="4NpsqZ_ejs6OjjV2Qtw8-23" value="Title" style="ellipse;whiteSpace=wrap;html=1;align=center;" vertex="1" parent="1">
          <mxGeometry x="40" y="160" width="100" height="40" as="geometry" />
        </mxCell>
        <mxCell id="4NpsqZ_ejs6OjjV2Qtw8-24" value="TXT" style="ellipse;whiteSpace=wrap;html=1;align=center;" vertex="1" parent="1">
          <mxGeometry x="120" y="50" width="100" height="40" as="geometry" />
        </mxCell>
        <mxCell id="4NpsqZ_ejs6OjjV2Qtw8-26" value="ID" style="ellipse;whiteSpace=wrap;html=1;align=center;" vertex="1" parent="1">
          <mxGeometry x="360" y="160" width="100" height="40" as="geometry" />
        </mxCell>
        <mxCell id="4NpsqZ_ejs6OjjV2Qtw8-27" value="Creation Time" style="ellipse;whiteSpace=wrap;html=1;align=center;" vertex="1" parent="1">
          <mxGeometry x="310" y="220" width="100" height="40" as="geometry" />
        </mxCell>
        <mxCell id="4NpsqZ_ejs6OjjV2Qtw8-34" value="Processing" style="ellipse;shape=doubleEllipse;margin=3;whiteSpace=wrap;html=1;align=center;" vertex="1" parent="1">
          <mxGeometry x="150" y="580" width="100" height="40" as="geometry" />
        </mxCell>
        <mxCell id="4NpsqZ_ejs6OjjV2Qtw8-36" value="User ID" style="ellipse;whiteSpace=wrap;html=1;align=center;" vertex="1" parent="1">
          <mxGeometry x="310" y="90" width="100" height="40" as="geometry" />
        </mxCell>
        <mxCell id="4NpsqZ_ejs6OjjV2Qtw8-38" value="Email" style="ellipse;whiteSpace=wrap;html=1;align=center;" vertex="1" parent="1">
          <mxGeometry x="700" y="620" width="100" height="40" as="geometry" />
        </mxCell>
        <mxCell id="4NpsqZ_ejs6OjjV2Qtw8-39" value="Password" style="ellipse;whiteSpace=wrap;html=1;align=center;" vertex="1" parent="1">
          <mxGeometry x="570" y="620" width="100" height="40" as="geometry" />
        </mxCell>
      </root>
    </mxGraphModel>
  </diagram>
</mxfile>
